<?xml version="1.0" encoding="utf-8"?>
<!-- Uploaded to: SVG Repo, www.svgrepo.com, Generator: SVG Repo Mixer Tools -->
<svg fill="#D4ADFC" width="800px" height="800px" viewBox="0 0 32 32" version="1.1" xmlns="http://www.w3.org/2000/svg">
<title>gift</title>
<path d="M28 9.25h-1.176c0.824-0.916 1.328-2.134 1.328-3.47 0-0.398-0.045-0.785-0.129-1.157l0.007 0.035c-0.438-1.705-1.806-3.003-3.519-3.333l-0.028-0.005c-0.206-0.030-0.444-0.046-0.686-0.046-1.874 0-3.513 1.012-4.398 2.518l-0.013 0.024-3.385 4.869-3.384-4.869c-0.901-1.531-2.54-2.542-4.416-2.542-0.241 0-0.477 0.017-0.709 0.049l0.027-0.003c-1.741 0.333-3.11 1.632-3.54 3.307l-0.007 0.031c-0.078 0.337-0.123 0.725-0.123 1.123 0 1.336 0.504 2.553 1.332 3.474l-0.004-0.005h-1.177c-1.518 0.002-2.748 1.232-2.75 2.75v3c0.004 1.247 0.839 2.298 1.981 2.628l0.019 0.005v10.367c0.002 1.518 1.232 2.748 2.75 2.75h20c1.518-0.002 2.748-1.232 2.75-2.75v-10.367c1.16-0.335 1.995-1.386 2-2.632v-3.001c-0.002-1.518-1.232-2.748-2.75-2.75h-0zM20.615 4.672c0.636-1.139 1.834-1.897 3.209-1.897 0.137 0 0.272 0.008 0.405 0.022l-0.016-0.001c1.16 0.224 2.071 1.091 2.357 2.208l0.005 0.021c0.029 0.189 0.046 0.407 0.046 0.628 0 1.493-0.755 2.809-1.905 3.588l-0.015 0.010h-7.266zM5.426 5.024c0.29-1.138 1.201-2.004 2.342-2.225l0.019-0.003c0.114-0.013 0.247-0.020 0.381-0.020 1.377 0 2.576 0.757 3.206 1.877l0.010 0.018 3.182 4.578h-7.266c-1.165-0.788-1.92-2.105-1.92-3.597 0-0.222 0.017-0.439 0.049-0.652l-0.003 0.024zM2.75 15v-3c0.001-0.69 0.56-1.249 1.25-1.25h11.25v5.5h-11.25c-0.69-0.001-1.249-0.56-1.25-1.25v-0zM4.75 28v-10.25h10.5v11.5h-9.25c-0.69-0.001-1.249-0.56-1.25-1.25v-0zM27.25 28c-0.001 0.69-0.56 1.249-1.25 1.25h-9.25v-11.5h10.5zM29.25 15c-0.001 0.69-0.56 1.249-1.25 1.25h-11.25v-5.5h11.25c0.69 0.001 1.249 0.56 1.25 1.25v0z"></path>
</svg>